<mxfile host="65bd71144e">
    <diagram id="HIP3nbAZw_EuaXWnEj3U" name="Page-1">
        <mxGraphModel dx="606" dy="571" grid="1" gridSize="10" guides="1" tooltips="1" connect="1" arrows="1" fold="1" page="1" pageScale="1" pageWidth="850" pageHeight="1100" background="#ffffff" math="0" shadow="0">
            <root>
                <mxCell id="0"/>
                <mxCell id="1" parent="0"/>
                <mxCell id="7" value="http://ics2o.mths.ca" style="swimlane;whiteSpace=wrap;html=1;fillColor=#000000;strokeColor=#36393d;" parent="1" vertex="1">
                    <mxGeometry x="40" y="40" width="760" height="480" as="geometry"/>
                </mxCell>
                <mxCell id="8" value="Adding up numbers" style="whiteSpace=wrap;html=1;fillColor=#b0e3e6;strokeColor=#0e8088;fontColor=#000000;fontSize=21;" parent="7" vertex="1">
                    <mxGeometry y="20" width="760" height="60" as="geometry"/>
                </mxCell>
                <mxCell id="9" value="Input a number below and see what the sum of every &lt;br&gt;number between 1 and your input.&amp;nbsp;" style="text;html=1;align=left;verticalAlign=middle;resizable=0;points=[];autosize=1;strokeColor=none;fillColor=none;fontSize=21;fontColor=#000000;" parent="7" vertex="1">
                    <mxGeometry x="10" y="90" width="520" height="60" as="geometry"/>
                </mxCell>
                <mxCell id="10" value="&lt;div style=&quot;text-align: left;&quot;&gt;&lt;span style=&quot;background-color: initial;&quot;&gt;Example:&lt;/span&gt;&lt;/div&gt;&lt;div style=&quot;text-align: left;&quot;&gt;&lt;span style=&quot;background-color: initial;&quot;&gt;You input is 6&lt;/span&gt;&lt;/div&gt;&lt;div style=&quot;text-align: left;&quot;&gt;&lt;span style=&quot;background-color: initial;&quot;&gt;The sum of every number between 1 and 6 is 21&lt;/span&gt;&lt;/div&gt;" style="text;html=1;align=center;verticalAlign=middle;resizable=0;points=[];autosize=1;strokeColor=none;fillColor=none;fontSize=21;fontColor=#000000;" parent="7" vertex="1">
                    <mxGeometry y="150" width="470" height="90" as="geometry"/>
                </mxCell>
                <mxCell id="11" value="" style="shape=image;verticalLabelPosition=bottom;labelBackgroundColor=default;verticalAlign=top;aspect=fixed;imageAspect=0;image=data:image/jpeg,/9j/4AAQSkZJRgABAQAAAQABAAD/2wCEAAkGBxISEhUSEhIVFRUVFRISFRUSFRUVFRUVFRUWFxUVFRUYHSggGBolGxUVITEhJSkrLi4uFx8zODMtNygtLisBCgoKDg0OGhAQGy0lHyUtLS0tLS0tLS0tLS0tLS0tLS0tLS0tLS0tLS0tLS0tLS0tLS0tLS0tLS0tLS0tLS0tLf/AABEIALcBEwMBIgACEQEDEQH/xAAcAAABBQEBAQAAAAAAAAAAAAAGAAIDBAUBBwj/xABAEAABAwIDBgQCCQIEBgMAAAABAAIDBBEFITEGEkFRYXETIoGRobEHFDJCUsHR4fAjYhWSssIzc4Ki0vElY3L/xAAbAQACAwEBAQAAAAAAAAAAAAAEBQIDBgEAB//EADcRAAEDAgMECQQBAwUBAAAAAAEAAgMEERIhMQUTQVEiYXGBkaGx0fAyUsHhFAYj8RWSssLSQv/aAAwDAQACEQMRAD8A9IxXAmTgXaDlqhiv2BGobfsvRmNsLJ1ktbtGoAs02HL9ogOAN7LzjC4hT2AFgDYhEQN8wpNosG3gZIx5hmRz7dVkYJXh3kOoy6oEy3lOLj6/tOyRPFvWcMitbc5qCamaTchWjmm2V1kOHEFcDbCw0VSsqwwXJVt3JC215ILQNCqpnFrbhEUkQllDTxUkm0I4BOpMfBPmCGGhJj0JjfrdOzQQkWAXoVPUNePKVPZAlBWOjcCDlyRtSTiRgcOKJikxZHVKKqlMJuMwuTwBwsdEOV+HuBNtEVFU6lt7ey6YGPcMQS2ogErDfUaLuxuG7jHSO+0429AiMlVcKA8IWVpaSKIRMDG6ALJPGZ7SoaicMFyVh1OP52aFzadzt5o4EIfcE3pqZjmhzknqql4eWtystf8AxqQ8VapsbcPtZhDgkspY5wUQ6mYRoh2zv1xFHVJVNkFwpihzZne33crfFEhSqeMMeWhOIJDJHiKH9pcLD277ftDXqEDVFO8OAHE2XqkzbtI6FB1dCG+bk66Jp6h4AaqpaWN1yQiXBMObDGAM3EAuPMq+VhYZjHlAOanqsZaBlqqXwyl5vmVxlTCIxY2QT9NtcBStiGrntPoCgvYLGDE4Z5cVu7Z0rqu99RmEGYZTujcQcrJpSgNO71yzRVM4uix8z+vwvcIKhrwHNzunoCwHFXsNsyOmaL6fE2OGtu+SjLTOYcs0eyQHVaMMjmG7TZWX1znDMBUWzg8Ql4g5oV0YOoVgKj+qN3y/iVOUwyDmopakDipBp0XiVNupLMdirOaSt3T+ShjavQ1xNfIALlcjlDhcL5+ZWA4b58kysdU8oV2kwMl31iAecZvYPvjmP7kVJKErBIM1dT1D4H42d44Ecig7C8RErevEcVoKltNgjmE1FOM9ZIx94Z3c0c/mqmFYyyQWJzXo5SDgk1TcxtkZvofp4ji08j+DxWsSs7GaDxmdRmFottqnEq8jELFUseWODm6hCEGASOHJUazBJGZjNHQFtPZRysvwXRDCW6kFMGbSlDrm1l59G/gUX7LA+Gb6XyUcmzzXv3jlzA4rZhjaxthkFS2MtdfkpVtZHLHhbqfJPcVTqH5sbxJ/JTTzBou42HzQXjeNHxQ4aNvb2KsDhjaOseqDggdIHEcAfQo02brw7eYTo5w9it4LyjY6vd5jfPeJ9yvSMOxFsgsdVqzGcAeOQusLVWjnc3rU9fRNlbuu9DxBQ/LgDxpYjmP0RQCur0c72CwOSofBG92JwzQbLgEh0BTqLZWTeu94a3kMyUYpKYq5BoVx1NG7IhQ0tM2Nu60WHz7qQlIlVaqrawZn0VABceZUnOaxvIBNxKoDGdTkPVD+08JZGP7rJ9TUGRwJ0ButvFaMTQjsLIkWiLb881VGXTNktrbL8oMwuSwsVJUzcF2XDJGGwF1vYJgwjAfJm889G9uqlW18ULcd7k6AcUtgoZnuDCLW4lZuF4A5/mkG6DoOP7LTg2YpGu3vBa53NwuthcustPtGeU3Jt1DJaKKJsbQ0KOOnY37LGjsAF10DDq0H0Cikq2t1KY2vYUt/kMBzdmpF7OpR1GDwu+7unm3JYWJ4NURjehd4gH3XZO9DoUVRyA6FPTSn2nUxWLX3HI5jz/Fl6wIyXlcuMzA2I3SMiCLEKpJWvdq4o+2mwBs7S5otIBkfxdCvP2Uzr7u6bg2I6rYbP2gyrjLmizhqOXuFHjmoHNPNJbUez0xAO7qki9837gvYV6DX1lwbaKDA6wk2GeabT0T5v7W/iP5LcoqFkLd1g7k6nuV8apqeWZ+8vYc/b5brWolfHGws1PorIXVxNc5PS9rRcpcnFeObaWpq5/h+UODZLDQE33reov6r07EMUawHNedY/gktZUNkaQ1obYk668OaFjLqufdxNvkb/OGfNOdlSCmeZJXYWkWz9uPZqpcK2kOW9n/OSIKfFmO4rNw7Y+KOxcXuPU5ewWu3BoRoweqcR7HqRq5o8T6CynVbS2e49AO7gLeZB8gpGzg6OCkEygOGs4Zdif1VWbCj9x7mnrmFJ+y6kZtwnvt6i3mhmVlK42JI7R/5JV59R1AVGrxdjNMysXEKKqZmSXt5tv8AFZW9dLJhNE7C9uE9fy3gU5pqOGVuNrw4dX54jsNitCtxB0hzKowYcZpA0DX5J7nDgizZDD7HfcMyMuynSx45AB2lEVUraaAkZZWHahbDcPMEjmkcUQwkjMLfmwJsj95xsOmpV6HDIm6MB6uzWziqWsjAOq+XV0bpZThItzWJBjDm5HNXo8aYdVqeC38LfYKGehif9pg7jI+4VZlicc2nuKDEE7dH9xBVYYtHzUcmNRjjdUMR2fcAXQkn+x2vof1Qt9Ye5/hNY4yXtugG4PXkioqeGQXaUHNU1EZwuCJ6rHScm5LO8YuNybrUw3ZrIOndc/gabAdzx9FuQ0MbB5WNHpn7qLp4Y8mC6kylnl6Uht2+yHKKEvcAi10VmWHBMDQkSgpX7wpnTNEIPG6puiANyp1HWxOc2zTY65qnHV2O68brhz49QUh2nia8OcOja1+u/wA1RAmbisVfWfiVVuN6lSvqmgXuFiV82+6/Dgkk0t24W/AuSyZWCrSSE5kprZk2VhOgVQQPLgACbqhkTrXsbIXAeS2sOqXb4A4lErlm4Th3hi7s3/LoFoI6njLAb8UXC0tbmkVUbh7N4u3Rcm5NlaUlM29+6ZUDy2bLiCrW6pnghJXPCXE6xq2ykAsk5y4VRrK5rO6yU1Ru28kxawuNgrE04aLkofxbGg0HOwVPEcSJuSVhU0ZqZc/sNzd15NQUEUtbKI28flyjWxMjaXv4fLBa1DE6X+o/Q/Zb0/EVsNZb9koWgDhy7J119BpaWOlj3UQy58SeZ+ZaDJKZZXSuxO/wuuGSYLDVVMTr2wML3nsOa8+xLbCVzjuGw4JjBTPlBI0VBcBkvTA4cE8BeU0+Py33t7PVGuye0H1i7HZPAuOvNTmo3MaXA3A1XA+5st9zVh4xgrX3ewAO4jgf3RI9qrTeyXyRMnZgeLj5mOtFU9RJTvEkZsfXqPMLBwzAmts53mPwRZhkNhfhos+ijJcWjuO3H+dVuU7bMFkBHSsgJa3/AD1qzaFfJUAFx18uY9E8lJcKxMexQx2a3U5oqOMyOwhZ+aYRNLnLZ3gnIFGKvvm4rdwbFy9wY7joVfJSPY26EirmPcGkWut1MDQDewvz4p9lwoVH6Jt10lRTzNYN5xyWRJtEy9gLqxkT3/SEPJOyPJxW4uFZcONsOuS0YpA4XBv2XHRuZ9QXWSsk+kp91VraVsrbHXgeIPRWikQq3NDhY5hTIuLcEHyMc0lrtRkpqaPePQK/jNLvODhxFj6LkMO6LBZpuzjFUObbojTrGo8OPWFKCO+ZTmQi2itUdGG+YjzfJPporZn0VhXTSA9EIuy4uLqqV9YIxdDOcGi5UHODRcpVtYGNVvCJLsv1ugqpqnSOuUV4E/8Apg80RQkl5J5KumlMkhPBa+8Eljy1YJOfEj2yXFom01wCh5Nphri22h+cFyqxF1li1M3ElWJnLPnaXZBfOWRulfYXJW1ZZo5LLrJHPNgiHCaIRsA9XHm4qrRUYDh0z/T+dFsgWFgtvsbZ/wDHYZHfU7yH7OvYgK2oxkMboPX56pshUcjwBe+ilLbof2prPDZuDV2vQJ/G3E6yXHJBm2WMumk3QfI34odIV98Rc7mSURUOyJcLyEjoPzTXesjYL5clABBgnsUW/R9d1Yy3AOJ7WXMQ2QZnukg+6JPo1wV0QlleM7+G3sMyfkqX1TTE+3L1Ui1GcqqTLs0tyoZHJYxqmU+gmtKP+XIfaxWphNSJIWPabgtC8/xLGxHVlt8m01ST33cvkVN9GeOjwGxvOQy7KUtOXAkagNP/ACQFVMGFt9LkeNl6Gh/aXDXPtIwXIFnNGtuY5rfBvmuoOKQxuxBDzRNlZhcvJa+oIWrslWh0zN7gT8kTbUYJHNGZN0B7Re44gag80A0Y8CQk6ZAe6bRztmaW6XySqSldCQ7WxBXr100lCdHtA4AC9/mr7sRmcPLHbrklz6Z7NbeKbQyunH9tjj2C/oq21NVm1gPUobkfZaFfBJvbzgc+JsP/AGs+ppnkaJjEY2RgApVNTVBldjYQeRFslNBUgrUwasc2VrQcnG1lj4bs7VSEEAMb+J5tfsNSjLB8EbD5i7ffztYDsPzUJp4g0jUrsdNLjHCx1WsU1xSumkpUE0c5VK46J8EQAVN04kn3B9wbx9ea0krr5cLsI1siKY3ZfrKRXE5NclSuIUFVOGC6F66cvJutOvpp5DkzLqQPzVaLApibuLB6k/kqR0jiKEkD5DpkqFJSF7hyRc0CNnYKGloQy2is1DN5pbe18sk1gfBCM3Z8bAoiNm7GWqEpSbnuSktv/BW/iPsEk6G16UC1/I+ySHZ0xN/yFcrKAHNo7j9FnmIBETgsnEICA9w0DXP9QD+iFFMwG7GgEnO2V7rRwVL/AKHHsVWkYNeZuOwyH6+qne0aJkTg0DtYJr35pqG2yGgVmq64WzXn+0E5kffgSf8AKNEb4nJaJ5H4UD1cJfKI26k27BFQ5C/ywUHKfZHCd5xlcMhk2/PmjVsKdheHhjGsaNAB+pW1DQAa5lBTT4nXUg1C9VT9M9AOZOQC1YoxFGGDgM+/E+6nqGNL/KBZl8+buPtp3J5KtO25XWm4HzsXuKhuCVBWzhoJOjRdSuaGoZ2rrrN8MHN2vZFRsxOHJRJQU+nfV1T3C/mbNbsGOt/Oqk2RnMbiw8fmivYWjbvyyGwAYY235nX8gohsdK6XeYRG29/Nf5BXOq2tkOLLIflCzUMkzLMF/nXZEuF405gs7MLYZjcfboclkU2DsaPOd48xcK/GGs+y23fNATywON2j8BW0mxKgD+48AchmfwB3XXcQnlmbutaWtOrnWGXbVZcuz0LjvSHf6NO78dStNz1E93VD71w+nLsTmLZVO3UYr/dn5aeXenU8bGCzGBo7XPunvkJUbCpSFWdbpjhDcgopneU35FQ4aGudHvWzANjxNrqPFZd2J56FB1Tjpa2jLXeaz3u9JHRj/SVdELmyX7YhJpmuH3fi/nZetJXWFh2Oh7QT8FafirOq6YXjKyyG/atElZOOYu2FjjfMAqlW4yTk3JBO1tcfDOeq7hDRcoaWdx6LeKMthJPEp3Tn7UsjyT0aS1o7ZfFEqCthKnw6eJh/CCe5zPzRg2cHisbLUtdK/Ec7lN6fCIw0cFKV26iMo/llE+paNXD3CiZW81diAVglcuqf15nO/a5/JRSYkwak+yk4PDcZBw87G3jaygXgC60brt1knFmcLrhxQclTv2rm9C1LpLL/AMT6fNJe3o+BR3jUQXWRtFVBkM3/ACJX/wCUD9Vrkrzbb/HADIL5GCeIf/p7Db4tC20MZeTbhmoCQNkYDxKIsLqWyxtcDq0e9lakiB4rzjYfH9xrWOOWi9Ep5GvFwUxqYTE8kaHRGxvxN602SHeaWnQghY+D4QWTvfJbkzqDqQiFrVwt/hQ+LIhWWWtQw7oueKVTVXFmHPi7gO3MrMbdPMqG3Wd126cQGiwVeQrsj1SnqbXJRDGkrhKhr6kMaXHQfNeeYpWOkeXakmw7nIBXdqsc33CJhyvmm7O4VJLJviNxa3Q2Ni49dMkU9zYWXd86l1o4lFeybGsi3Mt5pAJ9Lm3qVtl/VDNJg1ayaRzY/I51xd4B4DS/Ra0ralozg/y5n23klknic6+MeI91omCDCwNkZ9LcsQFjbPUq456ry1gHFCmLY7Kw7pje06ecOHsLAH4ocrMVkf8Aace3D2UhhtcG6aw7OLgC4i3Vn6ZI5rNoImfeBPIZ/LL4qjhePfWKhsTRYZknoF5/UVKI/ozbvVEjz91nzP7L2MXsETLTwwxOIFzY6r0gWCTnp+8mOcVy6R8VhbWS7tM88xb3yXnmB4VPVTtjiaXHdB82TWNvfeJ4C5+KP9szeG3ULd2CwxsUJdbzOEYJ42Dbgf8AcqKmrNOzE0Z8O/2VdcMVM1nXdNwrZB0bQHzXPHdbYe5K0hs7Hxe8+rR+S21xJXbSqjq8+Q9AkP8ACg1wBYo2bg4757u/RMl2Son/AG4d7u9//kt1cuh3VsztZHf7j7qYpYRoxvgFQgwanYAGxAAaZk/MqwKOP8CnuuXQZLCcwFaGNHAeCza7CWvadwljuBBJF+oPBeeUlTI6u+rTZbjiHC+R5ehuCvVHOtmvI9qK0DFi5vJg9QBn/OSM2VDFJWMaQOfgqJ6ZrgHAI1ldbIKve4zzUziHAOHEA+6YF9AGYVJVSWjtm32/RNYrZvwSewcdUir9ixydOGzXcuB9j2Zc+aHfADm1QpKx4Tebkkl/0mr+zzChuStLHcSEbS0HzFeZ45QOn8upN/kUVT3eblWcGw8OkBIyAd/pK2zCIYjb4Utja6SdpPPyXkuGRlh3SivCcafFkcwrmO7OlrjI0ZcR+axzCmMUzZWZ6JuI7IxpdomO4rTixRh+8F5q9tiumoeNCVW+ljOmSvAvoV6iK5vMe6gkrm/iXmZxKQfeVeoxeS2byqv4jRxXHkheh12NsYM3D3WPSuqMQcWwDdjBs6Z32B0aPvH+ZIe2PwKTEZjvkiCMjxHDVx4MafmeS9npKdkTGxxtDWtFmtaLAAJPtDabaY7uH6uJ5e59OKqzOqwsF2LpafzFviyamSXzZ/2t0aiHskSopZg3MrKzzueccjrnmV0u5qW6SznYo0J0WIgoX+THzUN63mrU9O14LXtDmnUOAIPoUIbQbBxSAup/6b9d0/8ADd05t9MuiMo3g6J6KjkczpMKLpqqWnOKF1vQ9o0K+fK/BJ2PMcjCLGxvp3B4jqEX/RrR+GZSdSB+SPNoMIbPGcvO0Gx/2nohfZGOz5QcrWHqnFLOJczrxWng2oauNwIsbZomJTXFdAXCi1WLId2vzYxvN7W+5sjLZtwMbyNBK9g/6A1n+1Be10m74J/++If9wP5Im+j2QuomPOr3yv8AdxKUbVObR1/g+6hWD+0Oz1J9kSJJJJKM8ylSoVlbuOt0uoPr5PL2Xa2gkfJcFobYa3v7J0eEAavJ7ABL3x1DnmwNr9iMbuQ0XOajNY7mmmrdzVr/AAxv4nfD9FG/DTwdfvkomGYa38V0Pi+BUaupNsyvGsbqC7EXnkG29l63jEL2g3ae/D3XnWOYM5rxNbXI9jmPzTv+nmEVV7cLfPBemLRGjbAZ9+BvNuR+Y/nRTvWJsjLa7DxFx3H8KIJGr6AHXN+aSPFjZcDgAo3G65JkCeQuqGHYxFNfdOY4Xz9tVNrCQSFAlXd9Jdt0SXVxNhp3E2sUTYRShpHQLGa03u0ohwSoEjS61rHdPcLPM2lvxhcLH1RjtlCm6bDcdeoVepogSRZC+L7MXu6PI8uHpyR7PHxVSQAaoyGocw3CqwXyXktdg8jPtNP5e6zZac8l6/MYzrn2CzKjDad2sfsLfJGN2xCPrI7irhTSHQFeTzx2WRWNJXsEuzlOfun3KrnZinGe4D3z+an/AKlA/wCk38PdQfC9o6QstbYXDmwUULQM3NEjurn5m/v8FulUMMmaGhg4AADsr28sG6beOc4nO5v23Qg0SchvFqsl26NAt6pmDQUKSNJJ6lBVPTIaO/8AColzyCidLZOiqUySkeVXgoJHPDQNT7dVVuJGi5aVWIiinA5CSeQWwq9DTCNoaPU8ypyjoY92yyJY3C2y4hplMGVE1tH7r/fX4hEpKHpJw6d4HBjR8T+qOoHWnA6imWzCd8bfafwVYATS1PAScE8Tu6FNvhu07XfhkYeXEIo+jcf/AB8PY/NDf0gw71DKOQDvYgog+jOYGgibxASXa+T4+/0XKpt6fF1j/t7orSSXLpSTZKE5cUb5gFXdXBVSVDGmxKm1jjoriSrxVIKsBdZIH6LhaRqmPYCLEXHVDe1GC78Tiwfd05WzFvZE64QiIaiSB2NnhwPzyUV5JgtRuua7kR7cUYyhZm0uBiKXxY8mSE3A0a/j6FXKKXeiaeIG6fTJbiiqm1EQe35f9/LWuLK2xSK8d2vZJRVri0kNf/UZbLXUDsfmvYShnb/Zp1bAPDt4rDdt8gQdWk/zRM4pTGVQRdCtPt5Lui+6ctTa57pKOm+imctBdURtcRm0NLrdL8Ulf/Ii+0LmDrXolXjjQ3ynMol2HqN6N3cH5ryqWWyM9ipX7jjezTkevZfNKSYtkxO5LfbRoGtpTh5hHFXiIFw31PD0WVJITne56pj3qMvsiZZnP1SOKEM0XXuKa1/dVpa5o1cuNxOP8SFMjRxRQidbRXCVwqOOoa7QhStF1IG+ihpqqklIQd5hseXBRjEntydkVfCr1UIcOqCqKQHpsyPr+0HUUbJRkLO9e1Vn1TnnMq3TQi1+azoIjey3IoicgiNmRixckDYiCbhMkiFlbw+kDBcjM/AKSOlta6nJRtQ8XwqRySumkpFRTyhoJPBCudYXKgSq+J1oiYSTwQHshixmqZgfxOPoT+ydtTi5eHWOWYCw9h/6VQ0k/wDEaCf8zh+Snssl1RjPYPncnGyGXkceNj6L04NXd1NY5SFaNMlj4/T78EjObHD4LG2FrzEwM4AAInq25EIOo2eHI4dSkW323iY4c/8ACPgDXwuY5eksxAEaKOStJ0yWXh7HuAs0kK6ad41aVlcT3DjZLHQsa6ya95OpXF1rV0xFdZA92bGkqVwEgVp0Etx2WVor+F8fRWQhzZQqZ29BaCSS6mlkEqWKUwkicw8QbdxogjBKi5kj4gg/qvQnLyakrAzEZmcN9w9z+6ef09KRK+LmL96jK3EwnkiclJrgnPauNaAFrMrIFcukkkuriAGYfK8/ZI7r0XCYBHC1g5fFVjh5tlZXoButDTqAvn7Yww3ButzXVm/aByOikQ7tBiJDtxvqiEuCF9oKQh++NCoTZtsFVQhpl6Xd2rIklPElca9SPjyUBYRwQpsnwAIVqKpc3QraoMaIychsSKVj1JvRzCplp2vFnBegRPDgCOK48KDBGHwW35KeRGjNoJWccMLy3km0rRc91u00YaL8SsGhN5d0dEQOKJikDYrhKq9mCQnnYphK4ulMIQhN0pKRKGNo6+/kB7rZxWp3G9UIy000p8sbjfjayGkOM4eHFVE3NlgVUBkNvdV6iAxSMIys1vyB/NHNHs6+2dhzurVdspHKQXPIsAPKBwFkygEcIBvn1JzQVMcDgXFZOE4qHtGeYWsK4W1Ckg2Sp2cHE87/ALKOt2bBF4nkHk7Q+wTEbRhJ6QI7v2mp2jRSP1Le0ZeRJ8lTra8AEqDB6FssjCdCbnqsTHA9h3XAgjVbGy8/kYetvkh9rPY6A8Ra/wC0ymiwQBzDqde4r0JjQBYCwT1WpZ94KwkjJGvbdqzBBBsVC6AagKN8JVpJXMmcwYRovBxCznUJd0V2CEMFgn3XVU4tc/EdVJ0jnCxSXEk1zlBzwAoKOok3Wkrwn6yfrsr+cjz8V7Ji0/lIHJePYjSGOodlqd73TT+nnXqHO6h6q4twxm/FHlDVh7b+6sFw5oToZSBkdVoRzOst8YQcwk5JBstj6y1JYu+ea6vbpqjco0yAUbWg6pJL56VqRomvjChFHva6cikkuYQTmpYyBkuMomN0aEpKRp1aF1JWMkIyXcbtbrKqsFY7QWPTJNw/ZqzrvdcDh+q4kq3saTor3VkzWYQ5EjjYWCqTPskkov0Q8YuVWwCo3qk9iEUkpJKiBxMYv1+qA22LTgD7QmrqSStSVNLBxC6upLhNlxculdJJRuvXTbpXSSULrhQbt1HvbgGp/dNwyi8GGIHUuc42+S4kip86Dx9VrKSR38KFnA38iUU0j8gVpRzJJLPw5ZhBTAFSh67vJJIgTvQxCV1wuSSXnSOXLKN0igfJdJJQGZzV7WhVZ4t5Cu2OBb1pW2uBn2SSWk2GA1xeNbhVzk2sh+JhaArsZyXUl9A/+Uo4rm4V1JJV3XrL/9k=;" parent="7" vertex="1">
                    <mxGeometry x="520" y="90" width="235" height="156.38" as="geometry"/>
                </mxCell>
                <mxCell id="12" value="" style="rounded=1;whiteSpace=wrap;html=1;fillColor=#FFFFFF;strokeColor=#666666;fontColor=#333333;" parent="7" vertex="1">
                    <mxGeometry x="10" y="246.38" width="210" height="30" as="geometry"/>
                </mxCell>
                <mxCell id="13" value="Calculate" style="rounded=1;whiteSpace=wrap;html=1;fillColor=#FFFFFF;strokeColor=#666666;fontColor=#333333;fontSize=21;" parent="7" vertex="1">
                    <mxGeometry x="10" y="300" width="120" height="33.62" as="geometry"/>
                </mxCell>
                <mxCell id="14" value="The sum is 21" style="text;html=1;align=left;verticalAlign=middle;resizable=0;points=[];autosize=1;strokeColor=none;fillColor=none;fontSize=21;fontColor=#000000;" parent="7" vertex="1">
                    <mxGeometry x="10" y="340" width="160" height="40" as="geometry"/>
                </mxCell>
            </root>
        </mxGraphModel>
    </diagram>
</mxfile>